<?xml version="1.0" standalone="no"?><svg xmlns="http://www.w3.org/2000/svg" viewBox="0 0 1440 150">
  <defs>
    <linearGradient id="gradient">
        <stop offset="0%" stop-color="#4681e1" />
        <stop offset="100%" stop-color="#243fdb" />
      </linearGradient>
  </defs>
  <!-- <path fill="url(#gradient)" fill-opacity="1" d="M0,256L40,250.7C80,245,160,235,240,229.3C320,224,400,224,480,202.7C560,181,640,139,720,149.3C800,160,880,224,960,256C1040,288,1120,288,1200,272C1280,256,1360,224,1400,208L1440,192L1440,0L1400,0C1360,0,1280,0,1200,0C1120,0,1040,0,960,0C880,0,800,0,720,0C640,0,560,0,480,0C400,0,320,0,240,0C160,0,80,0,40,0L0,0Z"></path> -->
  <!-- <path fill="url(#gradient)" fill-opacity="1" d="M0,96L48,90.7C96,85,192,75,288,74.7C384,75,480,85,576,106.7C672,128,768,160,864,154.7C960,149,1056,107,1152,101.3C1248,96,1344,128,1392,144L1440,160L1440,0L1392,0C1344,0,1248,0,1152,0C1056,0,960,0,864,0C768,0,672,0,576,0C480,0,384,0,288,0C192,0,96,0,48,0L0,0Z"></path> -->
  <path fill="url(#gradient)" stroke="#f5ecf9" stroke-width="10" stroke-dasharray = "1460 2080" fill-opacity="1" d="M0,128L48,133.3C96,139,192,149,288,133.3C384,117,480,75,576,74.7C672,75,768,117,864,117.3C960,117,1056,75,1152,64C1248,53,1344,75,1392,85.3L1440,96L1440,0L1392,0C1344,0,1248,0,1152,0C1056,0,960,0,864,0C768,0,672,0,576,0C480,0,384,0,288,0C192,0,96,0,48,0L0,0Z"></path>
</svg>